<?xml version="1.0" encoding="UTF-8"?>
<svg id="Background" xmlns="http://www.w3.org/2000/svg" viewBox="0 0 2102.79 2333.65">
  <defs>
    <style>
      .cls-1 {
        fill: #133826;
      }

      .cls-1, .cls-2, .cls-3, .cls-4, .cls-5, .cls-6, .cls-7, .cls-8, .cls-9, .cls-10, .cls-11, .cls-12, .cls-13 {
        fill-rule: evenodd;
        stroke-width: 0px;
      }

      .cls-2 {
        fill: #93c749;
      }

      .cls-3 {
        fill: #4c4c4c;
      }

      .cls-4 {
        fill: #292929;
      }

      .cls-5 {
        fill: #5d9240;
      }

      .cls-6 {
        fill: #acd26d;
      }

      .cls-7 {
        fill: #d1d1d1;
      }

      .cls-8 {
        fill: #ddbd92;
      }

      .cls-9 {
        fill: #feeac0;
      }

      .cls-10 {
        fill: #e6e6e6;
      }

      .cls-11 {
        fill: #e9e9eb;
      }

      .cls-12 {
        fill: #fff;
      }

      .cls-13 {
        fill: #fef3da;
      }
    </style>
  </defs>
  <path class="cls-10" d="m1051.44,2333.65c579.01,0,1051.35-184.08,1051.35-409.89s-472.34-409.81-1051.35-409.81S0,1698.04,0,1923.76s472.34,409.89,1051.44,409.89h0Z"/>
  <path class="cls-1" d="m1385.51,528.95c16.9,5.74,32.33,18.04,44.7,30.43,18.84,18.87,30.94,33.21,54.68,44.87,44.8-113.69,58.93-150.88,131.43-170.95,70.47-19.52,152.21-36.73,236.07-54.67,70.1-13.78,102.8,28.49,121.64,65.13,67.15,130.34,110.28,249.77,122.75,396.94l1.2,14.15-12.38,7.03c-72.5,41.72-156.92,70.67-237.18,92.97l-3.88,1.11c-.37,2.68-1.02,5.36-1.94,8.05-6.65,19.79-24.47,31.17-44.98,31.63l-2.96.09-2.77-.65c-10.44-2.59-35.37,3.79-46.18,5.92-30.02,5.92-57.63,8.61-88.11,4.54-10.44.37-20.78-.74-30.66-3.79l-6.46,3.98c-25.58,15.73-47.2,27.75-78.23,29.97-24.66,1.76-47.38-3.98-68.07-14.52-7.11,61.52-21.7,127.29-52.18,181.5,49.14,36.54,98.37,80.29,130.14,131.92,2.77,4.53,4.9,9.43,6.19,14.61,15.88,64.11-97.63,124.33-141.59,146.72-14.13,7.21-57.17,28.77-77.58,44.49,44.52,80.76,107.05,108.97,200.7,93.71,37.87-6.11,73.61-17.95,110.56-27.66,27.8-7.31,66.78-16.93,91.9,2.13,8.31,6.29,13.95,14.8,17.36,24.61,4.99,14.15,5.45,27.1,2.22,38.11,6.56-.65,12.74-1.57,17.83-2.5,25.67-4.81,52.37-7.4,78.23-2.5l1.94.37,1.85.74c21.71,8.33,38.24,26.09,41.01,49.68,3.51,30.8-17.27,55.97-44.7,66.97-38.24,15.36-84.79,4.44-121.36-10.55-18.01-7.39-37.41-12.39-57.26-15.63,0,.47.09,1.02.09,1.48,4.34,69.01-109.45,99.54-141.87,34.23-19.49-39.13-67.79-54.02-108.06-58.37-70.1-7.59-147.22-82.61-191.37-132.56-12.75-14.44-21.8-31.36-24.2-50.6-4.8-38.21,17.55-72.16,42.86-98.34,27.15-28.02,62.53-52.73,97.72-73.91-30.76-12.12-70.56-21.65-95.59-27.29-35.74,11.01-72.23,10.27-108.06.93-27.25,25.9-55.6,50.14-85.99,72.43-24.2,17.85-49.41,33.95-74.17,50.97-24.29,16.74-46.64,34.04-67.98,54.67-29.92,28.96-56.25,61.97-80.63,95.65l-1.75,2.59-2.49,1.94c-16.72,13.23-28.63,53.84-33.99,75.58,2.77,58.65-4.06,119.06-16.07,176.32-2.22,10.83-2.68,22.11,1.2,32.57,12.84,34.59,71.39,49.77,104.83,56.52,29.37-4.99,62.99-5.92,90.51,6.38,22.35,9.99,38.98,28.4,42.85,53.01,4.99,31.91-12.84,62.63-39.44,79.19-34.63,21.55-76.29,17.12-111.76.18l-2.68-1.29-2.31-2.03c-35.65-31.08-79.89-50.97-123.95-66.98-7.02-2.5-22.26-7.21-29.46-2.96-10.99,6.57-12.19,37.46-12.19,51.8,10.44,28.3,12.38,57.54,4.16,86.86-10.16,36.08-32.7,70.4-67.98,85.75-30.85,13.41-63.64,8.88-92.82-6.48-25.58-13.41-52.46-33.86-52.92-65.59-.65-36.08,36.02-68.55,58.56-93.43,12.28-13.5,28.54-32.28,32.6-50.5.74-3.42,2.68-14.16,1.38-18.32-5.73-1.76-21.7,2.87-26.32,4.44-23.18,7.86-47.1,21.19-68.16,33.86-24.75,21.73-56.16,44.77-88.48,52.35-39.25,9.25-102.15,19.43-131.15-17.29-8.4-10.64-12.47-23.4-13.3-36.82-1.39-22.67,2.68-45.14,16.81-63.46,20.87-26.92,55.79-34.79,88.11-35.8,79.52-2.5,185.55-14.34,253.07-60.69,36.21-24.88,39.72-106.01,38.51-144.4-1.38-42.93,1.75-87.52,25.95-124.33,16.16-24.61,30.66-50.79,44.8-76.69,16.26-30.06,32.05-60.4,48.31-90.47,32.33-59.76,81.55-150.23,138.26-196.3-24.85-54.95-27.52-112.58-12.75-172.33,6.28-25.16,17.36-46.63,32.33-67.62,11.92-16.74,25.59-32.1,37.31-48.84,14.78-21,23.37-40.7,24.38-66.7,1.57-41.16-16.44-88.44-33.34-125.07-23.55-50.88-63.73-151.53-15.33-199.63,5.82-5.74,12.56-10.36,19.95-13.78-58.37-47.92-95.41-128.12-71.86-202.86,17.64-55.88-2.59-94.54,11.27-141.17,19.49-65.49,89.41-100.37,154.43-120.07,24.47-57.91,87.37-76.6,145.47-81.31,44.98-23.5,111.66-50.32,158.21-19.24,71.95,61.24,42.3,218.5-4.53,272.25,34.36,11.56,92.08,64.94,104.92,98.52,15.05,39.31.09,78.17-36.21,108.79-13.67,11.56-28.26,23.5-43.59,35.34h0Z"/>
  <path class="cls-2" d="m1425.97,819.05c-22.08-93.15-60.13-167.71-114.25-223.77,56.99,51.71,98.46,115.26,124.32,190.66,20.78-78.07,35.65-128.4,49.88-156.43-27.8-12.21-46.09-27.75-71.49-54.39-18.56-17.67-38.42-31.55-57.26-25.9-46.37,13.79-127.55,81.59-239.4,74.84,94.86,98.98,197.56,163.92,308.21,195h0Z"/>
  <path class="cls-2" d="m1392.26,1208.68c62.44,44.5,109.36,90.38,140.94,137.65,17.64,31.27-24.57,74.47-126.53,129.7-52.46,25.16-84.05,45.23-94.76,60.13,128.29,261.79,390.87,16.09,426.8,104.34,7.48,25.99-1.94,41.08-28.36,45.24,15.15,8.42,39.62,10.08,73.43,4.99,25.49-5.73,48.77-6.57,70.01-2.5,57.91,22.29,23.46,118.13-108.71,64.66-36.21-15.17-82.2-22.66-137.89-22.39,21.98,3.42,36.76,9.07,44.24,16.93,10.25,17.29-7.3,37.37-20.97,46.71-27.15,12.12-45.81,15.64-60.96-6.75-16.9-33.4-52.92-60.04-106.86-74.19-35.01-3.88-61.05-9.43-79.43-22.48-85.62-63.46-130.04-109.34-133.19-137.74-5.91-54.21,52.55-107.5,175.3-159.95-21.24-28.03-66.22-51.16-134.94-69.47-31.4-7.86-79.99-6.29-145.65,4.81-144.82,141.81-194.98,111.56-320.59,285.75-16.99,13.5-31.22,43.75-42.67,91.02,1.85,33.3-3.33,91.22-15.42,173.92-15.79,58.09,26.79,96.85,127.55,116.28,178.17-32.65,120.16,157.17-7.94,95.93-36.48-31.82-80.17-55.5-130.97-71.05-48.95-20.72-72.78,3.98-71.49,74,10.25,25.62,11.91,51.16,4.99,76.6-17.46,59.48-64.38,92.87-129.03,65.59-104.65-66.79,30.02-111.66,49.6-184.92,11.17-60.4-31.5-61.33-128.01-2.96-30.57,27.11-57.36,43.38-80.35,48.66-43.13,10.27-74.35,10.82-93.75,1.85-13.21-33.58,4.43-70.59,40.27-86.59,62.99-2.96,114.99-9.43,172.53-21.09,109.08-24.52,166.53-75.03,169.85-176.5-6.84-59.2-1.94-106.75,14.69-142.64,29.28-35.71,58.83-80.67,88.57-134.6,34.82-87.23,93.47-169.19,175.95-245.97-44.7-88.34-37.13-176.87,22.63-265.58,46.83-53.38,56.43-119.79,28.72-199.44-38.61-86.03-42.67-140.7-12.19-164.01,44.98-6.75,101.04,7.49,168.1,42.74,102.34,80.76,177.71,96.95,279.12,152.91,17.92-21.74,35.93-39.87,53.94-54.4,24.47-23.96,52.09-50.23,82.85-78.72,7.94-5.83,12.28-14.52,12.93-25.9,11.55-17.11,25.68-19.15,42.39-6.11,4.62,3.7,7.85,9.34,8.87,15.26,0,13.97-9.05,22.48-31.77,25.35-15.61,8.97-28.82,24.42-41.84,44.5-29.56,40.61-38.42,71.6-27.62,100,5.36,11.56,14.32,17.67,31.86,20.35,27.06,9.25,48.95,23.13,65.67,41.63,38.79,22.66,80.91,26.64,126.44,11.93,26.97-12.68,41.66-12.68,44.06-.09-1.38,10.45-9.33,20.91-25.58,21.27-29.19-7.03-73.06,19.24-138.45,9.81-12.84.74-24.57-1.66-35.1-7.21-3.14-2.04-6.37-3.98-9.7-5.74-3.51-1.57-7.02-3.24-10.44-5-14.59-6.29-30.94-10.27-48.86-11.93,19.95,5,75.83,21.74,38.98,42.74-5.63,3.24-12.1,6.48-19.21,9.44h0c-63.82,16.37-101.69-16.65-141.13-66.24-133.46-2.4-252.7-27.29-368.15-85.94,73.24,73.26,177.8,111.84,313.57,115.73,52.37,45.14,64.93,97.41,38.33,164.38-15.7,31.92-23.92,56.98-24.66,75.3h0Zm-408.15-809.89c88.11,87.24,521.84,89.27,447.95-27.93,21.43,28.49,23.46,59.2,1.94,86.77l-.19-.28c-35.1,36.26-82.76,67.71-135.4,96.48-72.23,40.52-151.01,41.72-236.44,3.61-93.1-41.54-140.57-95.84-142.33-162.72,8.5-42.64,16.07-81.5,11.91-124.51-2.49-36.72,10.53-63.46,41.47-89.64,30.02-22.76,73.8-40.89,131.34-54.39-9.98.65-17.92.74-23.92.37,16.16-42.55,60.31-66.33,132.54-71.42,83.4-44.31,136.97-43.76,160.52,1.66-115.08-124.05-219.91,441.53-389.4,341.99h0Z"/>
  <path class="cls-5" d="m367.97,2103.41c-53.85,7.39-82.11-5.92-84.69-39.97-2.4-49.21,25.4-74.37,83.31-75.58,119.05-5.18,207.35-26.73,264.98-64.57,30.48-21.83,46.55-76.31,48.21-163.55-3.51-42.65,3.97-79.74,22.26-111.28,76.2-103.15,150.27-311.11,241.25-368.83-30.2-54.95-36.67-112.95-19.58-173.91,24.01-111.56,158.77-114.8,59.2-322.94-45.35-101.85-46.55-163.46-3.51-184.92,47.66-14.89,90.98-.74,129.95,42.46,15.15,20.17,36.76,41.44,64.93,63.83-14.96,5.18-42.3,2.59-81.83-7.59.92,2.04,1.48,4.16,1.48,6.57,0,8.33-6.83,15.17-15.24,15.17s-15.15-6.84-15.15-15.17c0-3.7,1.3-7.03,3.42-9.62-46.27,1.94-60.13,31.27-41.47,87.88,45.07,85.38,54.4,151.8,27.99,199.26-79.06,91.67-90.61,196.76-34.45,315.17-70.1,30.16-159.6,138.95-268.68,326.64-30.02,30.53-43.22,90.75-39.53,180.57,2.49,179.18-207.07,212.02-348.66,216.19-19.3,4.9-27.71,17.02-25.21,36.26,2.86,21.74,13.21,37.74,31.03,47.92h0ZM1481.57,919.7c5.45,0,9.88,4.44,9.88,9.9s-4.43,9.9-9.88,9.9-9.98-4.44-9.98-9.9,4.43-9.9,9.98-9.9h0Zm-31.4-20.26c8.41,0,15.15,6.75,15.15,15.17s-6.74,15.17-15.15,15.17c-.92,0-1.85,0-2.68-.18,29.09,60.59,71.39,85.94,126.81,75.85-34.64,13.88-86.36,17.76-146.49-50.05-117.11,3.7-238.01-30.34-362.8-102.12,191.47,71.14,315.51,88.99,372.12,53.56,2.68-4.44,7.48-7.4,13.02-7.4h0Zm-398.36-190.2c5.17,0,9.33,4.16,9.33,9.34s-4.16,9.34-9.33,9.34-9.33-4.16-9.33-9.34,4.16-9.34,9.33-9.34h0Zm604.04-.83c1.85,10.82-3.51,22.76-20.41,26.09-10.07,1.76-18.56,7.03-25.49,15.91-25.58,28.03-64,77.89-52.74,118.69.65-4.35,1.76-8.97,3.42-13.69,6.28,14.43,21.89,28.4,47.1,41.72,7.57,4.07,14.41,8.42,20.5,12.95h0c3.6,2.68,6.93,5.55,10.07,8.42,40.64,31.91,84.14,43.11,130.6,33.67,10.07-4.16,16.44-8.42,19.21-12.58,23.18-19.43,36.58-3.52,34.54,12.49-7.3-6.75-14.78-7.31-22.35-1.57-55.23,22.02-104.92,21.18-148.98-2.59-18.2-22.39-39.25-35.71-63.27-39.87-10.81,1.02-21.15-3.52-31.22-13.69-20.6-37.1-9.7-80.48,32.51-130.06,11.91-17.11,24.29-28.67,37.13-34.69,15.79-.09,25.58-7.22,29.37-21.18h0Zm-320.86-86.68c-7.39-9.25-15.15-18.04-23.27-26.46,7.11,6.48,13.95,13.04,20.6,19.89-8.13-23.13,1.29-38.67,28.35-46.53,25.95-.09,43.78,17.11,53.48,51.8,11.27,39.96,26.78,63.37,49.14,69.1,8.13-26.09,15.42-45.88,22.63-60.04-27.8-12.21-46.09-27.75-71.49-54.39-18.56-17.67-38.42-31.55-57.26-25.9-46.37,13.79-127.55,81.59-239.4,74.84,37.78,39.41,76.84,73.45,117.11,102.13-23.55-36.63-21.52-66.69,6-90.29,16.9-9.43,32.05-13.6,45.26-12.58,28.17,12.3,44.43,11.75,48.86-1.57h0Zm43.59,347.27c13.67.46,27.71.46,42.03.18,12.47,12.95,23.46,24.42,33.06,34.51-8.59,88.06-29.09,156.43-61.42,204.99-11.08,8.79-20.41,14.34-28.17,16.84,55.97-89.82,60.87-175.3,14.5-256.52h0Zm350.14,658.27c4.25,3.14,7.57,7.49,9.98,13.22,7.39,25.62-1.66,40.61-27.25,45.05-8.96-1.3-18.38-2.22-28.35-2.87,49.6-1.38,64.84-19.89,45.62-55.41h0Zm150.55,106.75c-8.68,28.21-53.02,51.71-134.2,18.87-36.21-15.17-82.2-22.66-137.89-22.39,54.95-11.01,104.74-6.94,149.53,12.31,63.27,17.94,104.09,15.08,122.57-8.79h0Zm-228.96,12.3c4.52,4.17,6.83,8.97,7.02,14.53,4.25,44.03-74.81,65.31-99.75,22.85-14.41-34.79-56.25-58.37-125.61-70.58-41.75-1.67-100.86-43.48-177.15-125.26-49.32-58.83-.65-128.39,145.93-208.79-22.08-16.84-69.73-33.39-142.88-49.67-35.1,12.21-72.78,11.93-113.14-1.02-35.65-13.69-63.82-26.74-81.19-65.4,61.98,68.73,199.59,60.31,267.57,6.48-1.2,22.39-45.81,48.56,7.57,59.02,49.41,11.2,82.94,33.76,100.58,67.62-156.37,65.4-208.37,130.8-155.91,196.39,67.52,70.68,119.7,106.01,156.55,105.74,78.04,12.95,121.64,40.52,130.78,82.7,11.45,15.36,27.34,18.6,47.75,9.71,26.6-11.01,37.22-25.81,31.87-44.31h0Zm-646.16,284.37c11.55,41.99-40.45,97.87-118.5,60.59-36.48-31.82-80.17-55.5-130.97-71.05-35.93-15.17-58.28-5.92-67.15,27.66h0c7.2-44.5,33.16-56.99,77.95-37.46,66.13,24.23,107.42,45.6,123.95,64.01,25.86,18.13,52.65,20.63,80.45,7.58,18.29-12.95,29.74-30.06,34.27-51.34h0Zm-334.44,179.37c-23.55,33.21-62.07,46.81-110.56,26.37-104.65-66.79,30.02-111.66,49.6-184.92,6.19-33.39-4.16-48.66-30.94-45.7h0c29.19-3.98,44.06,5.27,44.43,27.65-.92,25.72-13.48,53.01-37.78,82.05-36.94,42.65-41.19,73.08-12.56,91.3,31.22,15.36,63.82,16.47,97.81,3.24h0Z"/>
  <path class="cls-9" d="m1656.41,904.52c13.39,10.83,27.71,18.5,42.86,23.22,15.7-123.4,16.16-248.01-33.62-373.63l-.92-2.4c-.65-1.48-1.2-2.87-1.76-4.35,40.36,79.28,62.53,151.99,66.41,218.22,2.59,34.23,2.4,73.26-.65,116.83,62.81,7.59,104.46,20.45,125.24,38.58,101.78-24.42,165.7-64.76,191.83-121.18-2.22-75.85-14.87-151.52-38.14-226.83-15.79-40.15-34.36-81.31-55.6-123.4-40.27-79.83-103.63-59.02-353.28,11.66-18.57,56.8-15.89,108.05,7.76,153.84,14.32,19.42,35.56,38.94,63.54,58.74,20.88,21.09,20.41,45.7-1.48,73.73-36.48,29.79-54.96,61.24-55.32,94.54,12.38,22.57,26.69,43.39,43.13,62.44h0Z"/>
  <path class="cls-8" d="m1656.41,904.52c-28.54-43.75-36.48-87.79,6.83-141.44,103.81-129.6-82.2-55.23-64.47-301.85-42.02,23.31-50.98,59.11-69.27,103.61-29.46,71.69-55.42,159.48-77.86,263.37,13.3-14.43,27.52-27.85,42.3-40.98,13.21-11.75,25.58-24.51,38.05-37,14.68-14.61,29.46-28.95,45.44-42.18,3.42-2.87,4.71-5.55,4.9-9.99l.37-6.11,3.42-5.09c18.93-28.31,48.12-32.19,74.63-11.19,7.39,5.83,12.75,13.97,15.61,22.94,8.59,27.66-8.5,52.64-36.85,57.91-5.26.92-9.05,4.16-12.47,8.23-21.7,25.62-39.25,44.96-47.47,78.35l1.57,3.52c5.36,12.58,25.58,24.7,37.04,30.8,8.13,4.35,15.98,9.25,23.37,14.8,3.88,2.87,7.48,6.1,11.17,9.25,1.29,1.11,2.49,2.04,3.7,3.05h0Z"/>
  <path class="cls-8" d="m1742.03,837.82c29.65,48.38,86.54,66.7,153.6,54.86,96.05-31.73,141.31-68.55,133.55-160.22-5.17-61.89-13.3-117.85-25.03-168.45,39.53,98.42,62.99,191.3,70.47,278.53-59.29,34.04-136.69,64.29-232.2,90.84-2.4-6.57-6.37-12.58-12.1-17.11-18.1-14.62-40.45-7.31-56.52,6.2l-2.5,2.13-1.29,1.94c-1.66,1.39-5.17,3.05-7.67,4.25-22.07,4.07-43.13,3.15-62.81-2.96,27.99-79.65,23.55-133.21,20.78-187.42-2.68-51.8-22.35-101.2-55.32-188.99,47.2,89.64,68.44,139.59,77.03,286.4h0Z"/>
  <path class="cls-9" d="m1372.21,211.19c17.64-52.27,17.64-98.61-.18-139.22-6.65-10.73-14.22-15.91-22.35-16.75h0c-16.72,1.2-37.22,19.98-61.51,56.43-16.26,23.68-35.38,60.41-57.45,110.17,1.57,24.14,33.62,35.99,95.96,35.52,19.21-3.52,34.45-18.87,45.53-46.16h0Zm-39.81,87.97c14.32,4.44,30.39,13.88,49.23,30.06,64.01,59.11,52.18,95.38-26.79,111.66-41.29,8.51-87.37,10.55-130.6,9.16h0c-52.55-3.7-71.58-20.54-56.99-50.41,18.2-20.91,53.76-34.14,106.68-39.68-18.84-19.43-15.24-37.1,10.62-53.01,15.52-7.86,31.4-10.55,47.84-7.77h0Z"/>
  <path class="cls-2" d="m1188.51,238.2c-18.01,32.47-36.58,64.48-55.97,91.86-3.79-1.29-7.57-2.59-11.36-3.98,19.03-42.09,41.47-71.41,67.33-87.88h0Z"/>
  <path class="cls-8" d="m1350.79,261.14c8.87-17.21,15.98-33.86,21.43-49.95-20.97,31.82-44.52,40.24-70.75,24.98-60.13-27.11-76.38,8.6-44.33-58.19,35.56-74,66.41-114.99,92.55-122.76-36.58-3.79-85.25,81.41-125.24,157.17-7.76,14.8-15.52,29.69-23.27,44.59-15.89,30.43-29.09,54.85-37.87,64.38,54.58-33.58,96.98-47.46,135.77-37.19,22.54,5.27,39.81-2.41,51.72-23.04h0Zm-247.81,175.12c-15.7-3.89-31.5-8.33-47.38-13.51,11.45-11.19,21.61-17.3,33.43-26.92,43.78-28.31,99.47-41.17,167.08-38.58-21.98-6.2-42.21-8.14-60.4-5.83,54.12-16.84,82.76-69.38,136.7-52.27-29.83-.74-50.34,9.43-61.51,30.53-4.62,11.93,6,25.16,31.96,39.59-54.59-5.92-95.59,4.07-123.12,29.88-18.93,25.81-4.16,42.74,44.52,50.88-8.04-.28-15.98-.65-23.74-1.11-24.75-1.48-61.14-5.27-97.53-12.67h0Z"/>
  <path class="cls-5" d="m1202.92,94.91c3.79,0,6.83,3.05,6.83,6.84s-3.05,6.94-6.83,6.94-6.83-3.14-6.83-6.94,3.05-6.84,6.83-6.84h0Zm227.76,366.69c-4.52,5.09-9.79,10.08-15.88,14.89-158.86,144.12-257.6,154.39-325.3,115.17-37.96-21.93-60.77-26.83-96.24-21.28-64.65-45.33-99.1-124.42-76.48-187.88,9.05-33.12,11.64-73.45,7.48-121.09,2.86-31.45,19.12-58.37,48.77-80.85-31.96,33.03-39.9,57.26-32.79,99.81,7.11,42.27,7.02,82.79-.18,121.55.74-.18,1.48-.28,2.22-.28,5.17,0,9.33,4.16,9.33,9.34,0,1.2-.18,2.31-.64,3.42,20.32,4.9,38.14,26.73,53.48,65.31,132.72,117.11,274.87,111.01,426.25-18.13h0Zm-459.22-89.55c5.73,0,10.34,4.72,10.34,10.36s-4.62,10.36-10.34,10.36-10.34-4.63-10.34-10.36,4.71-10.36,10.34-10.36h0Zm-20.87,14.34c3.88,0,6.93,3.05,6.93,6.85s-3.05,6.94-6.93,6.94-6.83-3.05-6.83-6.94,3.05-6.85,6.83-6.85h0Zm229.06-282.79c5.63,0,10.34,4.63,10.34,10.36s-4.71,10.36-10.34,10.36-10.34-4.62-10.34-10.36,4.62-10.36,10.34-10.36h0Zm22.91,12.21c-12.65,56.15-35.37,110.64-68.25,163.37,20.41-51.16,13.39-90.93-20.87-119.43,29.19-4.72,58.83-19.33,89.13-43.94h0Zm-199.87,305.64c93.19,50.88,419.78,77.7,439.55-15.82,15.98,97.96-353.74,84.74-439.55,15.82h0Zm101.69-295.28c-9.98.65-17.92.74-23.92.37,16.16-42.55,60.31-66.33,132.54-71.42-65.02,12.21-103.81,34.32-116.28,66.23,16.07.19,26.14.28,30.2.19-6.28,1.48-13.76,3.05-22.53,4.62h0Z"/>
  <path class="cls-1" d="m1129.67,236.26c2.03,58.83-40.27,110.08-96.24,124.98-12.56,3.33-25.31,2.68-37.04-3.05-31.22-15.17-41.01-57.08-37.13-88.9,5.26-42.74,32.7-75.94,74.54-87.42,42.95-11.84,94.12,2.68,95.87,54.39h0Z"/>
  <path class="cls-11" d="m1118.31,236.63c1.57,53.19-36.3,100.74-87.83,113.6-70.29,19.98-92.82-130.16,6.28-157.35,38.88-10.73,79.89,2.22,81.55,43.76h0Z"/>
  <path class="cls-7" d="m1092.91,310.36c-15.61,19.24-37.41,33.67-62.44,39.87-64.65,18.31-88.94-107.12-15.24-148.56-50.06,90.75,4.99,145.7,77.68,108.7h0Z"/>
  <path class="cls-3" d="m1059.11,302.86c19.95,0,36.21-16.37,36.21-36.36s-16.26-36.35-36.21-36.35-36.3,16.37-36.3,36.35,16.26,36.36,36.3,36.36h0Z"/>
  <path class="cls-4" d="m1069.08,287.23c10.8,0,19.67-8.79,19.67-19.61s-8.87-19.7-19.67-19.7-19.67,8.88-19.67,19.7,8.87,19.61,19.67,19.61h0Z"/>
  <path class="cls-12" d="m1058.19,256.79c5.17,0,9.33-4.25,9.33-9.43s-4.16-9.34-9.33-9.34-9.33,4.25-9.33,9.34,4.16,9.43,9.33,9.43h0Z"/>
  <path class="cls-12" d="m1066.5,289.73c2.31,0,4.25-1.94,4.25-4.35s-1.94-4.35-4.25-4.35-4.34,1.94-4.34,4.35,1.94,4.35,4.34,4.35h0Z"/>
  <path class="cls-6" d="m1082.85,1172.6c-18.01,43.94-9.61,69.84,25.12,77.71,140.94,44.96,228.13,8.97,261.47-107.95,21.06-89.08,9.51-147.73-34.54-175.85-68.07-6.11-127.37-21.93-177.98-47.27-9.51.19-18.1,2.04-25.86,5.55-3.69-5.92-10.25-9.81-17.64-9.81-11.55,0-20.87,9.34-20.87,20.91,0,7.03,3.51,13.32,8.96,17.11-14.04,24.15-21.15,61.15-21.43,111.19h0c-.37,8.88.09,18.41,1.29,28.58,10.07,30.71,10.53,57.35,1.48,79.83h0Zm272.47,64.39c4.89,0,8.96,4.07,8.96,8.97s-4.06,8.97-8.96,8.97-8.96-3.97-8.96-8.97,3.97-8.97,8.96-8.97h0Zm-26.88,1.11c6,0,10.81,4.9,10.81,10.92s-4.8,10.83-10.81,10.83-10.9-4.9-10.9-10.83,4.89-10.92,10.9-10.92h0Zm-244.57-341.44c3.33,0,6,2.68,6,6.01s-2.68,6.01-6,6.01-6.1-2.68-6.1-6.01,2.77-6.01,6.1-6.01h0Zm-1.39,48.1c5.82,0,10.44,4.72,10.44,10.55s-4.62,10.45-10.44,10.45-10.53-4.63-10.53-10.45,4.71-10.55,10.53-10.55h0Zm-335.09,699.9c9.7,0,17.64,7.87,17.64,17.67s-7.94,17.57-17.64,17.57-17.64-7.86-17.64-17.57,7.94-17.67,17.64-17.67h0Zm26.42,1.11c4.06,0,7.39,3.33,7.39,7.49s-3.32,7.4-7.39,7.4-7.48-3.33-7.48-7.4,3.32-7.49,7.48-7.49h0Zm-.18-35.8c6,0,10.81,4.9,10.81,10.82s-4.8,10.92-10.81,10.92-10.81-4.9-10.81-10.92,4.8-10.82,10.81-10.82h0Zm-310.43,425.62c29.37-1.47,11.54,14.43-53.48,47.83-27.43,7.58-42.02-1.95-43.87-28.77,4.9-19.98,22.26-25.9,52.09-17.66,15.7,5.82,30.76,5.36,45.26-1.39h0Zm1112.12-279.09c7.21-21.74,26.6-22.57,58.19-2.59-2.31,19.43-14.13,28.4-35.56,27.01-14.13-.56-21.61-8.7-22.63-24.42h0Zm200.33-26.74c.46-29.97,27.89-39.04,82.2-27.38,13.49,8.61,12.38,20.08-3.23,34.51-29.19,6.48-55.51,4.07-78.97-7.12h0Zm-526.18-993.51c40.82,27.47,82.85,49.49,126.17,66.14,7.57-13.04,5.73-25.07-5.54-36.26-15.61-15.17-21.61-35.52-17.92-61.24-8.22-25.62-27.15-36.17-56.71-31.63-33.25,5.92-48.49,26.92-46,63h0Zm-244.94-341.35c40.91,18.22,87.83-14.43,140.76-97.87,23.46-39.41,51.08-89.73,82.94-151.06,45.81-83.99,85.07-120.81,117.85-110.45-21.8-11.28-48.4-1.57-79.71,29.14-56.16,74.74-167.91,363.64-261.84,330.25h0Zm288.81,129.6c-84.88,29.05-161.63,29.79-219.54-20.63-14.87-16.28-12.65-26.83,6.47-31.64,102.8-2.59,51.17,54.03,150.37,24.15,73.7-22.2,172.81-9.71,62.71,28.12h0Zm-171.42,242c9.05-28.77,25.77-34.51,50.34-17.3,42.58,29.88,91.25,52.92,145.75,69.11,42.67,15.54,75.46,29.69,98.46,42.46,4.52,34.69-21.89,48.84-79.06,42.46-59.57-5.18-91.16-27.66-94.76-67.62-29.56-38.85-57.54-56.89-84.05-54.02-24.94,5.36-37.22.28-36.67-15.08h0Zm-127.09,599.62c-.83-19.24,4.53-32.38,16.16-39.22,41.01-15.45,63.82-5.36,68.26,30.25-.92,19.79-16.26,30.9-46,33.12-69.46,33.39-130.05,86.4-181.77,158.92-23.55,37.1-44.61,55.6-63.18,55.41-50.06-17.85,179.64-211.75,206.52-238.48h0Zm489.52,302.49c56.16-1.75,106.95-11.75,152.21-29.78,63.36-20.26,92.46-14.34,87.28,17.57-11.08,7.68-22.81,7.22-35.19-1.38-39.62-18.97-125.98,23.4-204.3,13.59h0Zm-729.1,173.82c-39.16,138.39,59.76,128.21,136.14,165.12,69.09-4.53,99.01,5.74,89.78,30.53-15.33,14.53-35.56,11.47-60.68-8.97-8.59-7.67-19.3-11.74-31.96-12.21-80.26-38.39-191.28-31.45-133.28-174.47h0Zm-101.04,238.11c-1.76,19.24,3.23,38.67,15.06,58.28,11.45,21.09-7.85,48.75-52.46,50.32-44.89-.46-52.55-33.95-14.32-66.88,22.91-18.04,33.62-35.24,32.33-51.43,1.2-12.67,22.54-12.86,19.4,9.71h0Zm853.24-737.73c28.54,32.01-15.43,84.46-77.77,102.87-26.51,9.06-60.5,36.82-99.94,62.25-28.45,17.48-36.39,14.8-23.74-8.33,19.4-28.21,61.42-58.55,126.81-83.81,30.29-13.23,26.97-37.28-10.44-79.1-22.35-34.5-27.99-55.5-16.72-63.18,30.48-20.73,81.74,48.47,101.78,69.29h0Z"/>
  <path class="cls-5" d="m986.97,1131.44c9.79,0,17.73-7.96,17.73-17.76s-7.94-17.76-17.73-17.76-17.73,7.96-17.73,17.76,7.94,17.76,17.73,17.76h0Z"/>
  <path class="cls-5" d="m994.18,1217.75c20.6,0,37.31-16.84,37.31-37.37s-16.72-37.46-37.31-37.46-37.31,16.84-37.31,37.46,16.81,37.37,37.31,37.37h0Z"/>
  <path class="cls-5" d="m1025.86,1143c8.41,0,15.24-6.85,15.24-15.17s-6.83-15.17-15.24-15.17-15.15,6.85-15.15,15.17,6.83,15.17,15.15,15.17h0Z"/>
  <path class="cls-13" d="m1748.59,570.39c97.16-42.55,169.48-47.36,216.96-14.34,11.82,65.03,13.67,141.82,5.73,230.25-39.99,54.4-85.44,74.1-136.51,58.93-13.12-147.55-41.93-239.13-86.17-274.84h0Z"/>
  <path class="cls-1" d="m1687.44,514.7c-10.34,61.79,269.14,307.95,250.39,41.81-1.2-17.11-12.47-94.17-37.59-101.39-7.39-1.2-12.38-8.05-11.27-15.45,1.2-7.31,8.03-12.39,15.42-11.19,55.88,15.73,64.19,126.09,60.22,170.12-23.46,256.15-343.77-21.37-299.62-98.71,4.25-6.1,12.65-7.58,18.75-3.33,5.91,4.07,7.48,12.12,3.7,18.13h0Z"/>
</svg>